REM DIRINDEX 1\2\4,1\2\5,1\2\6,1\3\7,1\3\8,1\3\9,1\3\10
REM DIRNAME cjc057,folder01,folder02,folder03,folder04,folder05,folder06,folder07,folder08,folder09
TITLE ""
FILE "a_135.mp3" MP3
  TRACK 01 AUDIO
    TITLE "0:"
    INDEX 01 00:00:00
  TRACK 02 AUDIO
    TITLE "4:cjc057_02902"
    INDEX 01 00:00:15
  TRACK 03 AUDIO
    TITLE "0:"
    INDEX 01 00:01:32
  TRACK 04 AUDIO
    TITLE "5:cjc057_02903"
    INDEX 01 00:01:69
  TRACK 05 AUDIO
    TITLE "0:"
    INDEX 01 00:03:47
  TRACK 06 AUDIO
    TITLE "4:cjc057_02904"
    INDEX 01 00:04:54
  TRACK 07 AUDIO
    TITLE "0:"
    INDEX 01 00:06:14
  TRACK 08 AUDIO
    TITLE "5:cjc057_02905"
    INDEX 01 00:06:45
  TRACK 09 AUDIO
    TITLE "0:"
    INDEX 01 00:08:73
  TRACK 10 AUDIO
    TITLE "4:cjc057_02906"
    INDEX 01 00:10:10
  TRACK 11 AUDIO
    TITLE "0:"
    INDEX 01 00:11:17
  TRACK 12 AUDIO
    TITLE "5:cjc057_02907"
    INDEX 01 00:11:54
  TRACK 13 AUDIO
    TITLE "0:"
    INDEX 01 00:12:71
  TRACK 14 AUDIO
    TITLE "4:cjc057_02908"
    INDEX 01 00:14:09
  TRACK 15 AUDIO
    TITLE "0:"
    INDEX 01 00:15:30
  TRACK 16 AUDIO
    TITLE "5:cjc057_02909"
    INDEX 01 00:15:64
  TRACK 17 AUDIO
    TITLE "0:"
    INDEX 01 00:17:20
  TRACK 18 AUDIO
    TITLE "4:cjc057_02910"
    INDEX 01 00:18:31
  TRACK 19 AUDIO
    TITLE "0:"
    INDEX 01 00:19:44
  TRACK 20 AUDIO
    TITLE "5:cjc057_02911"
    INDEX 01 00:20:06
  TRACK 21 AUDIO
    TITLE "0:"
    INDEX 01 00:22:44
  TRACK 22 AUDIO
    TITLE "4:cjc057_02912"
    INDEX 01 00:23:55
  TRACK 23 AUDIO
    TITLE "0:"
    INDEX 01 00:24:71
  TRACK 24 AUDIO
    TITLE "5:cjc057_02913"
    INDEX 01 00:25:31
  TRACK 25 AUDIO
    TITLE "0:"
    INDEX 01 00:26:56
  TRACK 26 AUDIO
    TITLE "4:cjc057_02914"
    INDEX 01 00:27:65
  TRACK 27 AUDIO
    TITLE "0:"
    INDEX 01 00:29:23
  TRACK 28 AUDIO
    TITLE "5:cjc057_02915"
    INDEX 01 00:29:60
  TRACK 29 AUDIO
    TITLE "0:"
    INDEX 01 00:31:14
  TRACK 30 AUDIO
    TITLE "4:cjc057_02916"
    INDEX 01 00:32:25
  TRACK 31 AUDIO
    TITLE "0:"
    INDEX 01 00:33:32
  TRACK 32 AUDIO
    TITLE "5:cjc057_02917"
    INDEX 01 00:33:68
  TRACK 33 AUDIO
    TITLE "0:"
    INDEX 01 00:35:68
  TRACK 34 AUDIO
    TITLE "4:cjc057_02918"
    INDEX 01 00:37:07
  TRACK 35 AUDIO
    TITLE "0:"
    INDEX 01 00:38:24
  TRACK 36 AUDIO
    TITLE "5:cjc057_02919"
    INDEX 01 00:38:59
  TRACK 37 AUDIO
    TITLE "0:"
    INDEX 01 00:39:68
  TRACK 38 AUDIO
    TITLE "4:cjc057_02920"
    INDEX 01 00:41:04
  TRACK 39 AUDIO
    TITLE "0:"
    INDEX 01 00:42:21
  TRACK 40 AUDIO
    TITLE "5:cjc057_02921"
    INDEX 01 00:42:57
  TRACK 41 AUDIO
    TITLE "0:"
    INDEX 01 00:44:71
  TRACK 42 AUDIO
    TITLE "4:cjc057_02922"
    INDEX 01 00:46:04
  TRACK 43 AUDIO
    TITLE "0:"
    INDEX 01 00:47:23
  TRACK 44 AUDIO
    TITLE "5:cjc057_02923"
    INDEX 01 00:47:60
  TRACK 45 AUDIO
    TITLE "0:"
    INDEX 01 00:49:06
  TRACK 46 AUDIO
    TITLE "4:cjc057_02924"
    INDEX 01 00:50:15
  TRACK 47 AUDIO
    TITLE "0:"
    INDEX 01 00:51:24
  TRACK 48 AUDIO
    TITLE "5:cjc057_02925"
    INDEX 01 00:51:60
  TRACK 49 AUDIO
    TITLE "0:"
    INDEX 01 00:54:05
  TRACK 50 AUDIO
    TITLE "4:cjc057_02926"
    INDEX 01 00:55:14
  TRACK 51 AUDIO
    TITLE "0:"
    INDEX 01 00:56:20
  TRACK 52 AUDIO
    TITLE "5:cjc057_02927"
    INDEX 01 00:56:53
  TRACK 53 AUDIO
    TITLE "0:"
    INDEX 01 00:57:56
  TRACK 54 AUDIO
    TITLE "4:cjc057_02928"
    INDEX 01 00:58:64
  TRACK 55 AUDIO
    TITLE "0:"
    INDEX 01 01:00:02
  TRACK 56 AUDIO
    TITLE "5:cjc057_02929"
    INDEX 01 01:00:37
  TRACK 57 AUDIO
    TITLE "0:"
    INDEX 01 01:02:54
  TRACK 58 AUDIO
    TITLE "4:cjc057_02930"
    INDEX 01 01:03:63
  TRACK 59 AUDIO
    TITLE "0:"
    INDEX 01 01:05:11
  TRACK 60 AUDIO
    TITLE "5:cjc057_02931"
    INDEX 01 01:05:46
  TRACK 61 AUDIO
    TITLE "0:"
    INDEX 01 01:07:47
  TRACK 62 AUDIO
    TITLE "4:cjc057_02932"
    INDEX 01 01:08:58
  TRACK 63 AUDIO
    TITLE "0:"
    INDEX 01 01:10:00
  TRACK 64 AUDIO
    TITLE "5:cjc057_02933"
    INDEX 01 01:10:35
  TRACK 65 AUDIO
    TITLE "0:"
    INDEX 01 01:13:02
  TRACK 66 AUDIO
    TITLE "4:cjc057_02934"
    INDEX 01 01:14:10
  TRACK 67 AUDIO
    TITLE "0:"
    INDEX 01 01:15:05
  TRACK 68 AUDIO
    TITLE "5:cjc057_02935"
    INDEX 01 01:15:42
  TRACK 69 AUDIO
    TITLE "0:"
    INDEX 01 01:16:48
  TRACK 70 AUDIO
    TITLE "4:cjc057_02936"
    INDEX 01 01:17:59
  TRACK 71 AUDIO
    TITLE "0:"
    INDEX 01 01:19:17
  TRACK 72 AUDIO
    TITLE "5:cjc057_02937"
    INDEX 01 01:19:52
  TRACK 73 AUDIO
    TITLE "0:"
    INDEX 01 01:20:71
  TRACK 74 AUDIO
    TITLE "4:cjc057_02938"
    INDEX 01 01:22:05
  TRACK 75 AUDIO
    TITLE "0:"
    INDEX 01 01:23:36
  TRACK 76 AUDIO
    TITLE "5:cjc057_02939"
    INDEX 01 01:23:69
  TRACK 77 AUDIO
    TITLE "0:"
    INDEX 01 01:27:08
  TRACK 78 AUDIO
    TITLE "4:cjc057_02940"
    INDEX 01 01:28:20
  TRACK 79 AUDIO
    TITLE "0:"
    INDEX 01 01:29:54
  TRACK 80 AUDIO
    TITLE "5:cjc057_02941"
    INDEX 01 01:30:13
  TRACK 81 AUDIO
    TITLE "0:"
    INDEX 01 01:31:14
  TRACK 82 AUDIO
    TITLE "4:cjc057_02942"
    INDEX 01 01:32:25
  TRACK 83 AUDIO
    TITLE "0:"
    INDEX 01 01:33:44
  TRACK 84 AUDIO
    TITLE "5:cjc057_02943"
    INDEX 01 01:34:05
  TRACK 85 AUDIO
    TITLE "0:"
    INDEX 01 01:35:08
  TRACK 86 AUDIO
    TITLE "4:cjc057_02944"
    INDEX 01 01:36:21
  TRACK 87 AUDIO
    TITLE "0:"
    INDEX 01 01:37:22
  TRACK 88 AUDIO
    TITLE "5:cjc057_02945"
    INDEX 01 01:37:58
  TRACK 89 AUDIO
    TITLE "0:"
    INDEX 01 01:38:65
  TRACK 90 AUDIO
    TITLE "4:cjc057_02946"
    INDEX 01 01:40:01
  TRACK 91 AUDIO
    TITLE "0:"
    INDEX 01 01:41:03
  TRACK 92 AUDIO
    TITLE "5:cjc057_02947"
    INDEX 01 01:41:38
  TRACK 93 AUDIO
    TITLE "0:"
    INDEX 01 01:42:63
  TRACK 94 AUDIO
    TITLE "4:cjc057_02948"
    INDEX 01 01:43:72
  TRACK 95 AUDIO
    TITLE "0:"
    INDEX 01 01:45:20
  TRACK 96 AUDIO
    TITLE "5:cjc057_02949"
    INDEX 01 01:45:53
  TRACK 97 AUDIO
    TITLE "0:"
    INDEX 01 01:46:68
  TRACK 98 AUDIO
    TITLE "4:cjc057_02950"
    INDEX 01 01:48:03
  TRACK 99 AUDIO
    TITLE "0:"
    INDEX 01 01:49:24
  TRACK 100 AUDIO
    TITLE "5:cjc057_02951"
    INDEX 01 01:49:55
  TRACK 101 AUDIO
    TITLE "0:"
    INDEX 01 01:52:00
  TRACK 102 AUDIO
    TITLE "4:cjc057_02952"
    INDEX 01 01:53:08
  TRACK 103 AUDIO
    TITLE "0:"
    INDEX 01 01:54:23
  TRACK 104 AUDIO
    TITLE "5:cjc057_02953"
    INDEX 01 01:54:58
  TRACK 105 AUDIO
    TITLE "0:"
    INDEX 01 01:55:63
  TRACK 106 AUDIO
    TITLE "4:cjc057_02954"
    INDEX 01 01:56:73
  TRACK 107 AUDIO
    TITLE "0:"
    INDEX 01 01:58:17
  TRACK 108 AUDIO
    TITLE "5:cjc057_02955"
    INDEX 01 01:58:52
  TRACK 109 AUDIO
    TITLE "0:"
    INDEX 01 01:59:63
  TRACK 110 AUDIO
    TITLE "4:cjc057_02956"
    INDEX 01 02:00:72
  TRACK 111 AUDIO
    TITLE "0:"
    INDEX 01 02:01:74
  TRACK 112 AUDIO
    TITLE "5:cjc057_02957"
    INDEX 01 02:02:32
  TRACK 113 AUDIO
    TITLE "0:"
    INDEX 01 02:04:35
